<?xml version="1.0" encoding="UTF-8"?>
<!DOCTYPE svg PUBLIC "-//W3C//DTD SVG 1.1//EN" "http://www.w3.org/Graphics/SVG/1.1/DTD/svg11.dtd">
<!-- Creator: CorelDRAW 2021 (64-Bit) -->
<svg xmlns="http://www.w3.org/2000/svg" xml:space="preserve" width="8.4667mm" height="4.6547mm" version="1.1" style="shape-rendering:geometricPrecision; text-rendering:geometricPrecision; image-rendering:optimizeQuality; fill-rule:evenodd; clip-rule:evenodd"
viewBox="0 0 46.72 25.69"
 xmlns:xlink="http://www.w3.org/1999/xlink"
 xmlns:xodm="http://www.corel.com/coreldraw/odm/2003">
 <defs>
  <style type="text/css">
   <![CDATA[
    .fil3 {fill:url(#id0)}
    .fil4 {fill:url(#id1)}
    .fil2 {fill:url(#id2)}
    .fil9 {fill:url(#id3);fill-rule:nonzero}
    .fil8 {fill:url(#id4);fill-rule:nonzero}
    .fil7 {fill:url(#id5);fill-rule:nonzero}
    .fil5 {fill:url(#id6);fill-rule:nonzero}
    .fil10 {fill:url(#id7);fill-rule:nonzero}
    .fil6 {fill:url(#id8);fill-rule:nonzero}
    .fil11 {fill:url(#id9);fill-rule:nonzero}
    .fil1 {fill:url(#id10);fill-rule:nonzero}
    .fil0 {fill:url(#id11);fill-rule:nonzero}
   ]]>
  </style>
  <linearGradient id="id0" gradientUnits="userSpaceOnUse" x1="6.4" y1="19.48" x2="6.38" y2="22.16">
   <stop offset="0" style="stop-opacity:1; stop-color:#EEC947"/>
   <stop offset="0.141176" style="stop-opacity:1; stop-color:#F6E168"/>
   <stop offset="0.278431" style="stop-opacity:1; stop-color:#FFF989"/>
   <stop offset="0.458824" style="stop-opacity:1; stop-color:#F0D756"/>
   <stop offset="0.631373" style="stop-opacity:1; stop-color:#E1B423"/>
   <stop offset="0.819608" style="stop-opacity:1; stop-color:#EED556"/>
   <stop offset="1" style="stop-opacity:1; stop-color:#FCF789"/>
  </linearGradient>
  <linearGradient id="id1" gradientUnits="userSpaceOnUse" xlink:href="#id0" x1="6.4" y1="22.64" x2="6.4" y2="23.63">
  </linearGradient>
  <linearGradient id="id2" gradientUnits="userSpaceOnUse" xlink:href="#id0" x1="6.28" y1="0" x2="5.75" y2="14.43">
  </linearGradient>
  <linearGradient id="id3" gradientUnits="userSpaceOnUse" xlink:href="#id0" x1="8.87" y1="23.57" x2="9.19" y2="23.9">
  </linearGradient>
  <linearGradient id="id4" gradientUnits="userSpaceOnUse" xlink:href="#id0" x1="2.2" y1="24.28" x2="2.09" y2="24.44">
  </linearGradient>
  <linearGradient id="id5" gradientUnits="userSpaceOnUse" xlink:href="#id0" x1="3.88" y1="25.11" x2="3.74" y2="25.54">
  </linearGradient>
  <linearGradient id="id6" gradientUnits="userSpaceOnUse" xlink:href="#id0" x1="6.4" y1="23.63" x2="6.34" y2="24.54">
  </linearGradient>
  <linearGradient id="id7" gradientUnits="userSpaceOnUse" xlink:href="#id0" x1="8.68" y1="25.11" x2="8.81" y2="25.54">
  </linearGradient>
  <linearGradient id="id8" gradientUnits="userSpaceOnUse" xlink:href="#id0" x1="3.68" y1="23.57" x2="3.36" y2="23.9">
  </linearGradient>
  <linearGradient id="id9" gradientUnits="userSpaceOnUse" xlink:href="#id0" x1="10.35" y1="24.28" x2="10.46" y2="24.44">
  </linearGradient>
  <linearGradient id="id10" gradientUnits="userSpaceOnUse" xlink:href="#id0" x1="20.44" y1="1.63" x2="45.1" y2="24.19">
  </linearGradient>
  <linearGradient id="id11" gradientUnits="userSpaceOnUse" xlink:href="#id0" x1="20.44" y1="1.63" x2="45.1" y2="24.19">
  </linearGradient>
 </defs>
 <g id="Layer_x0020_1">
  <metadata id="CorelCorpID_0Corel-Layer"/>
  <g id="_2580697251104">
   <path class="fil0" d="M13.23 12.75c0.37,-0.19 0.75,-0.35 1.14,-0.47 0.39,-0.12 0.79,-0.22 1.19,-0.28 -0.1,-0.05 -0.2,-0.1 -0.28,-0.16 -0.08,-0.06 -0.14,-0.12 -0.17,-0.18 0.01,0.02 0.01,-0.05 0.02,-0.2 0,-0.15 0.01,-0.36 0.02,-0.63 0.01,-0.27 0.03,-0.59 0.04,-0.97 0.02,-0.38 0.05,-0.78 0.09,-1.21 0.04,-0.43 0.09,-0.88 0.16,-1.35 0.06,-0.47 0.14,-0.93 0.24,-1.4 -0.42,0.11 -0.78,0.19 -1.07,0.23 -0.29,0.04 -0.46,0.06 -0.5,0.06 -0.07,0 -0.14,-0.05 -0.23,-0.15 -0.08,-0.1 -0.16,-0.21 -0.22,-0.33 -0.06,-0.12 -0.1,-0.24 -0.12,-0.34 -0.02,-0.1 0,-0.16 0.06,-0.16 0.03,-0.01 0.11,-0.01 0.25,-0.02 0.14,-0.01 0.31,-0.02 0.52,-0.04 0.21,-0.02 0.45,-0.06 0.72,-0.1 0.27,-0.04 0.55,-0.1 0.84,-0.17 0.12,-0.44 0.26,-0.85 0.43,-1.24 0.17,-0.39 0.36,-0.73 0.57,-1.02 0.21,-0.29 0.46,-0.53 0.73,-0.7 0.27,-0.17 0.57,-0.27 0.9,-0.29 0.18,-0.01 0.34,0.02 0.47,0.09 0.13,0.07 0.23,0.16 0.3,0.27 0.07,0.11 0.13,0.23 0.16,0.36 0.03,0.13 0.04,0.25 0.03,0.36 -0.01,0.38 -0.11,0.72 -0.28,1.03 -0.17,0.3 -0.4,0.58 -0.68,0.81 -0.28,0.24 -0.59,0.44 -0.93,0.62 -0.34,0.18 -0.69,0.33 -1.04,0.45 -0.1,0.62 -0.17,1.25 -0.21,1.9 -0.04,0.65 -0.07,1.26 -0.09,1.84 -0.01,0.58 -0.02,1.09 -0.03,1.54 -0,0.45 -0.01,0.79 -0.02,1 0.53,-0.04 1.07,-0.05 1.6,-0.01 0.53,0.03 1.05,0.09 1.56,0.18 0.51,0.09 0.99,0.2 1.46,0.32 0.47,0.13 0.9,0.26 1.3,0.4 0.4,0.14 0.76,0.28 1.09,0.43 0.33,0.15 0.59,0.28 0.81,0.4 0.03,0.01 0.01,0.04 -0.05,0.08 -0.06,0.04 -0.15,0.08 -0.27,0.13 -0.11,0.05 -0.25,0.1 -0.39,0.15 -0.15,0.05 -0.29,0.09 -0.42,0.13 -0.13,0.04 -0.25,0.06 -0.36,0.08 -0.1,0.01 -0.17,0.01 -0.2,-0.01 -0.02,-0.02 -0.12,-0.07 -0.29,-0.15 -0.17,-0.08 -0.4,-0.19 -0.69,-0.3 -0.29,-0.12 -0.62,-0.24 -1.01,-0.38 -0.38,-0.13 -0.8,-0.26 -1.24,-0.38 -0.44,-0.12 -0.91,-0.22 -1.4,-0.3 -0.49,-0.08 -0.99,-0.13 -1.49,-0.15 -0.5,-0.01 -0.99,0.01 -1.48,0.08 -0.49,0.07 -0.96,0.2 -1.41,0.39 -0.13,0.05 -0.22,0.07 -0.25,0.06 -0.03,-0.01 -0.04,-0.04 -0.03,-0.08 0.01,-0.04 0.04,-0.08 0.07,-0.13 0.04,-0.04 0.06,-0.07 0.08,-0.08zm5.14 -10.73c-0.2,0.05 -0.38,0.15 -0.54,0.29 -0.16,0.15 -0.31,0.34 -0.44,0.57 -0.13,0.23 -0.25,0.49 -0.35,0.78 -0.1,0.29 -0.19,0.61 -0.27,0.95 0.24,-0.09 0.48,-0.19 0.7,-0.31 0.22,-0.12 0.42,-0.26 0.6,-0.42 0.18,-0.16 0.34,-0.34 0.47,-0.53 0.13,-0.2 0.22,-0.42 0.28,-0.66 0.01,-0.08 0.02,-0.17 0.01,-0.25 -0.01,-0.09 -0.03,-0.17 -0.07,-0.24 -0.03,-0.07 -0.08,-0.12 -0.15,-0.16 -0.07,-0.04 -0.15,-0.04 -0.24,-0.02zm2.26 4.56c0.04,-0.01 0.12,-0 0.22,0 0.1,0.01 0.21,0.03 0.31,0.06 0.1,0.03 0.19,0.08 0.27,0.14 0.07,0.06 0.1,0.15 0.09,0.25 -0.01,0.02 -0.02,0.13 -0.03,0.33 -0.01,0.2 -0.03,0.44 -0.05,0.72 -0.02,0.28 -0.04,0.59 -0.05,0.91 -0.01,0.32 -0.03,0.62 -0.03,0.89 -0.01,0.27 -0.01,0.5 0,0.69 0.01,0.18 0.03,0.28 0.06,0.28 0.08,0.01 0.16,-0.04 0.25,-0.13 0.08,-0.09 0.17,-0.21 0.25,-0.35 0.08,-0.14 0.16,-0.29 0.23,-0.46 0.07,-0.16 0.14,-0.32 0.19,-0.46 0.06,-0.14 0.1,-0.26 0.13,-0.35 0.03,-0.09 0.05,-0.14 0.06,-0.14 0.01,0 0.03,0 0.06,0 0.03,0 0.07,0.01 0.11,0.01 0.04,0 0.07,0.01 0.1,0.02 0.03,0.01 0.04,0.02 0.04,0.04 0,0.01 -0.02,0.08 -0.06,0.2 -0.04,0.12 -0.1,0.27 -0.17,0.45 -0.07,0.18 -0.16,0.37 -0.27,0.58 -0.11,0.21 -0.23,0.4 -0.36,0.57 -0.13,0.17 -0.28,0.32 -0.44,0.43 -0.16,0.11 -0.33,0.17 -0.51,0.16 -0.1,0 -0.18,-0.02 -0.24,-0.05 -0.07,-0.03 -0.13,-0.08 -0.18,-0.13 -0.05,-0.05 -0.09,-0.11 -0.12,-0.18 -0.03,-0.06 -0.06,-0.13 -0.08,-0.19 -0.1,0.14 -0.22,0.25 -0.34,0.33 -0.13,0.08 -0.25,0.13 -0.37,0.17 -0.12,0.03 -0.23,0.05 -0.33,0.06 -0.1,0 -0.17,0 -0.21,-0 -0.1,-0.01 -0.24,-0.03 -0.41,-0.08 -0.17,-0.05 -0.34,-0.15 -0.5,-0.31 -0.16,-0.16 -0.3,-0.38 -0.42,-0.68 -0.11,-0.3 -0.17,-0.7 -0.16,-1.21 0.01,-0.44 0.06,-0.81 0.15,-1.11 0.09,-0.3 0.2,-0.55 0.34,-0.74 0.13,-0.19 0.28,-0.34 0.44,-0.45 0.16,-0.11 0.32,-0.19 0.47,-0.23 0.15,-0.05 0.28,-0.08 0.4,-0.08 0.11,-0.01 0.2,-0.01 0.25,-0.01 0.11,0 0.21,0.02 0.29,0.06 0.08,0.04 0.16,0.08 0.23,0.14 0.07,0.06 0.13,0.12 0.18,0.18 0.05,0.06 0.09,0.13 0.12,0.18 0.01,-0.15 0.03,-0.26 0.04,-0.35 0.01,-0.08 0.03,-0.13 0.04,-0.14zm-1.13 4.42c0.14,0 0.26,-0.03 0.35,-0.08 0.1,-0.06 0.18,-0.12 0.24,-0.2 0.06,-0.08 0.11,-0.16 0.16,-0.25 0.04,-0.09 0.08,-0.18 0.1,-0.26 0,-0.15 0.01,-0.33 0.02,-0.54 0.01,-0.21 0.02,-0.43 0.03,-0.66 0.01,-0.23 0.03,-0.46 0.04,-0.7 0.02,-0.23 0.04,-0.46 0.05,-0.67 -0.01,0.01 -0.02,-0.01 -0.02,-0.05 0.01,-0.08 -0.01,-0.16 -0.05,-0.24 -0.04,-0.08 -0.09,-0.16 -0.16,-0.23 -0.07,-0.07 -0.14,-0.13 -0.22,-0.18 -0.08,-0.05 -0.16,-0.07 -0.23,-0.07 -0.14,0 -0.26,0.04 -0.37,0.13 -0.11,0.08 -0.2,0.2 -0.28,0.33 -0.08,0.14 -0.15,0.29 -0.21,0.46 -0.06,0.17 -0.1,0.33 -0.13,0.5 -0.03,0.16 -0.06,0.32 -0.08,0.46 -0.02,0.14 -0.03,0.25 -0.04,0.33 -0.01,0.12 -0.02,0.28 -0.01,0.5 0.01,0.22 0.04,0.43 0.09,0.65 0.05,0.22 0.13,0.4 0.24,0.56 0.11,0.16 0.27,0.23 0.47,0.22zm4.46 -4.62c0.22,-0.02 0.41,-0.01 0.58,0.04 0.16,0.04 0.3,0.1 0.42,0.17 0.12,0.07 0.22,0.16 0.29,0.25 0.08,0.09 0.14,0.19 0.18,0.28 0.04,0.09 0.07,0.18 0.08,0.26 0.01,0.08 0.02,0.14 0.01,0.18 -0.01,0.08 -0.06,0.18 -0.13,0.28 -0.07,0.11 -0.16,0.2 -0.24,0.28 -0.09,0.08 -0.17,0.13 -0.25,0.16 -0.08,0.03 -0.13,0 -0.15,-0.07 -0.01,-0.05 -0.02,-0.12 -0.01,-0.22 0.01,-0.1 0.02,-0.21 0.03,-0.33 0.01,-0.12 0.01,-0.24 0.01,-0.36 -0,-0.12 -0.03,-0.23 -0.07,-0.33 -0.04,-0.09 -0.11,-0.17 -0.21,-0.22 -0.1,-0.06 -0.23,-0.07 -0.4,-0.06 -0.1,0.01 -0.17,0.06 -0.22,0.13 -0.05,0.08 -0.08,0.17 -0.1,0.27 -0.01,0.1 -0.02,0.21 -0.01,0.32 0.01,0.11 0.03,0.2 0.06,0.27 0.07,0.19 0.18,0.36 0.34,0.53 0.16,0.16 0.34,0.33 0.52,0.51 0.18,0.17 0.36,0.35 0.52,0.54 0.16,0.18 0.28,0.39 0.34,0.62 0.04,0.11 0.05,0.26 0.03,0.44 -0.02,0.18 -0.09,0.36 -0.2,0.53 -0.12,0.18 -0.3,0.33 -0.53,0.46 -0.24,0.13 -0.55,0.2 -0.94,0.21 -0.32,0.01 -0.59,-0.02 -0.81,-0.09 -0.22,-0.07 -0.4,-0.17 -0.54,-0.3 -0.14,-0.13 -0.25,-0.27 -0.32,-0.43 -0.07,-0.16 -0.12,-0.33 -0.14,-0.49 -0.02,-0.17 -0.03,-0.33 -0.02,-0.48 0.01,-0.16 0.03,-0.29 0.06,-0.41 0.04,-0.18 0.14,-0.31 0.27,-0.4 0.14,-0.09 0.27,-0.14 0.41,-0.15 0.14,-0.01 0.25,0 0.34,0.05 0.09,0.05 0.11,0.11 0.06,0.2 -0.13,0.2 -0.2,0.42 -0.22,0.65 -0.02,0.23 -0,0.46 0.06,0.67 0.06,0.21 0.16,0.39 0.3,0.54 0.14,0.15 0.31,0.24 0.51,0.26 0.14,0.02 0.27,0 0.38,-0.04 0.11,-0.05 0.21,-0.11 0.29,-0.2 0.08,-0.08 0.14,-0.18 0.17,-0.29 0.04,-0.11 0.05,-0.21 0.03,-0.31 -0.03,-0.19 -0.13,-0.38 -0.3,-0.58 -0.17,-0.2 -0.36,-0.4 -0.56,-0.59 -0.2,-0.2 -0.4,-0.39 -0.6,-0.58 -0.2,-0.19 -0.33,-0.37 -0.42,-0.54 -0.08,-0.16 -0.12,-0.34 -0.12,-0.52 0,-0.18 0.05,-0.35 0.14,-0.5 0.09,-0.15 0.23,-0.28 0.41,-0.39 0.18,-0.11 0.4,-0.17 0.67,-0.2zm4.11 0.12c0.3,-0.02 0.54,0.04 0.73,0.18 0.19,0.14 0.34,0.32 0.44,0.54 0.11,0.22 0.18,0.45 0.21,0.7 0.03,0.25 0.04,0.48 0.02,0.69 -0.05,0.44 -0.16,0.79 -0.32,1.04 -0.16,0.25 -0.34,0.44 -0.53,0.58 -0.2,0.13 -0.39,0.22 -0.59,0.25 -0.2,0.03 -0.36,0.05 -0.48,0.05 0.1,0.22 0.23,0.37 0.37,0.44 0.14,0.07 0.24,0.1 0.31,0.09 0.19,-0.01 0.37,-0.06 0.53,-0.15 0.16,-0.08 0.31,-0.19 0.44,-0.33 0.13,-0.13 0.24,-0.28 0.34,-0.44 0.1,-0.16 0.19,-0.31 0.26,-0.47 0.07,-0.15 0.13,-0.29 0.17,-0.43 0.04,-0.13 0.07,-0.24 0.09,-0.31 0.01,-0.03 0.07,-0.04 0.17,-0.04 0.1,0 0.15,0.03 0.17,0.09 0,0.02 -0.02,0.09 -0.06,0.22 -0.04,0.13 -0.1,0.28 -0.18,0.46 -0.08,0.18 -0.18,0.37 -0.31,0.57 -0.13,0.2 -0.28,0.39 -0.45,0.56 -0.17,0.17 -0.37,0.32 -0.6,0.44 -0.23,0.12 -0.48,0.19 -0.75,0.2 -0.24,0.01 -0.45,-0.02 -0.63,-0.1 -0.18,-0.08 -0.33,-0.18 -0.45,-0.31 -0.12,-0.13 -0.22,-0.27 -0.29,-0.42 -0.08,-0.16 -0.13,-0.3 -0.17,-0.45 -0.04,-0.14 -0.06,-0.27 -0.08,-0.38 -0.01,-0.11 -0.02,-0.18 -0.02,-0.22 0,-0.08 0,-0.21 0.01,-0.39 0.01,-0.18 0.03,-0.37 0.06,-0.59 0.03,-0.22 0.08,-0.45 0.16,-0.69 0.07,-0.24 0.17,-0.46 0.29,-0.66 0.13,-0.2 0.28,-0.37 0.46,-0.51 0.18,-0.14 0.41,-0.21 0.67,-0.23zm-0.69 3.03c-0.01,0.16 -0,0.3 0.01,0.43 0.01,0.13 0.04,0.24 0.07,0.34 0.09,0.01 0.2,-0 0.34,-0.03 0.14,-0.02 0.27,-0.09 0.41,-0.2 0.13,-0.11 0.25,-0.27 0.36,-0.5 0.11,-0.22 0.17,-0.53 0.2,-0.93 0.04,-0.64 -0,-1.11 -0.12,-1.4 -0.12,-0.3 -0.3,-0.43 -0.54,-0.39 -0.07,0.01 -0.14,0.07 -0.2,0.17 -0.06,0.1 -0.12,0.23 -0.17,0.38 -0.06,0.16 -0.11,0.33 -0.15,0.52 -0.04,0.19 -0.08,0.38 -0.11,0.58 -0.03,0.2 -0.05,0.38 -0.07,0.56 -0.02,0.18 -0.03,0.33 -0.03,0.46zm4.47 -2.8c0.07,-0.01 0.15,-0.03 0.24,-0.06 0.1,-0.04 0.2,-0.07 0.3,-0.09 0.1,-0.03 0.21,-0.04 0.32,-0.03 0.11,0.01 0.2,0.05 0.28,0.12 0.04,0.04 0.07,0.08 0.11,0.14 0.04,0.06 0.07,0.12 0.09,0.18 0.02,0.06 0.03,0.12 0.03,0.18 -0,0.06 -0.03,0.1 -0.07,0.13 -0.04,0.03 -0.09,0.12 -0.14,0.27 -0.05,0.15 -0.07,0.32 -0.08,0.51 -0,0.19 0.03,0.39 0.1,0.6 0.07,0.21 0.2,0.38 0.39,0.52 0.04,0.03 0.04,0.07 0.01,0.12 -0.03,0.05 -0.08,0.1 -0.16,0.15 -0.07,0.05 -0.17,0.09 -0.28,0.12 -0.11,0.04 -0.23,0.05 -0.34,0.04 -0.12,-0.01 -0.23,-0.05 -0.35,-0.12 -0.11,-0.07 -0.22,-0.18 -0.31,-0.33 -0.09,-0.15 -0.13,-0.34 -0.13,-0.55 0,-0.22 0.02,-0.43 0.05,-0.63 0.03,-0.21 0.06,-0.38 0.1,-0.53 0.04,-0.15 0.04,-0.23 0.02,-0.24 -0.03,-0.02 -0.07,0.01 -0.13,0.1 -0.06,0.08 -0.13,0.2 -0.21,0.35 -0.08,0.15 -0.16,0.33 -0.25,0.53 -0.08,0.2 -0.16,0.41 -0.24,0.63 -0.07,0.22 -0.14,0.44 -0.2,0.66 -0.06,0.22 -0.1,0.43 -0.12,0.62 0,0.26 0.01,0.5 0.02,0.71 0.01,0.21 0.03,0.39 0.06,0.55 0.01,0.04 -0.05,0.06 -0.16,0.08 -0.11,0.02 -0.24,0.02 -0.38,0.01 -0.14,-0.01 -0.27,-0.04 -0.38,-0.09 -0.11,-0.05 -0.16,-0.13 -0.14,-0.24 0,-0.02 0.01,-0.17 0.02,-0.46 0.01,-0.29 0.03,-0.66 0.04,-1.11l-0.01 0c0.02,-0.51 0.04,-0.92 0.04,-1.23 0.01,-0.31 0.01,-0.56 0,-0.75 -0.01,-0.19 -0.02,-0.35 -0.03,-0.48 -0.01,-0.13 -0.04,-0.27 -0.07,-0.43 -0.01,-0.03 0.04,-0.06 0.16,-0.08 0.11,-0.02 0.23,-0.02 0.37,-0.01 0.14,0.01 0.26,0.04 0.38,0.09 0.11,0.05 0.17,0.13 0.16,0.24 -0.01,0.28 -0.03,0.55 -0.03,0.81 -0.01,0.26 -0.01,0.51 -0.02,0.76 0.07,-0.21 0.16,-0.42 0.25,-0.62 0.09,-0.2 0.18,-0.38 0.27,-0.54 0.08,-0.16 0.16,-0.29 0.24,-0.39 0.07,-0.1 0.13,-0.15 0.18,-0.16zm4.07 -4.07c0.27,-0.05 0.49,-0.03 0.66,0.06 0.17,0.08 0.29,0.21 0.37,0.39 0.08,0.17 0.12,0.38 0.14,0.62 0.01,0.24 0.01,0.48 -0.02,0.73 -0.03,0.25 -0.07,0.49 -0.12,0.73 -0.05,0.24 -0.1,0.44 -0.16,0.61 -0.13,0.43 -0.27,0.81 -0.44,1.12 -0.17,0.31 -0.33,0.57 -0.5,0.79 -0.17,0.22 -0.33,0.39 -0.49,0.51 -0.16,0.13 -0.3,0.22 -0.42,0.29 -0.01,0.26 -0.02,0.53 -0.02,0.8 0,0.28 0.03,0.54 0.08,0.77 0.05,0.24 0.12,0.43 0.22,0.59 0.1,0.16 0.24,0.24 0.41,0.25 0.25,0.02 0.46,-0.03 0.63,-0.16 0.17,-0.13 0.31,-0.3 0.43,-0.51 0.12,-0.21 0.22,-0.44 0.31,-0.69 0.09,-0.25 0.18,-0.47 0.27,-0.69 0.02,-0.05 0.06,-0.08 0.11,-0.09 0.05,-0.01 0.1,-0.01 0.16,0 0.05,0.01 0.09,0.04 0.13,0.07 0.03,0.03 0.04,0.07 0.03,0.1 -0.14,0.35 -0.28,0.67 -0.41,0.99 -0.13,0.31 -0.28,0.58 -0.45,0.81 -0.17,0.23 -0.36,0.41 -0.59,0.55 -0.23,0.14 -0.5,0.19 -0.84,0.18 -0.24,-0.01 -0.46,-0.09 -0.66,-0.24 -0.2,-0.15 -0.38,-0.38 -0.52,-0.69 -0.14,-0.32 -0.24,-0.73 -0.3,-1.24 -0.06,-0.51 -0.06,-1.13 0.01,-1.86 0.01,-0.15 0.04,-0.37 0.08,-0.66 0.04,-0.28 0.09,-0.6 0.16,-0.94 0.07,-0.34 0.15,-0.69 0.25,-1.05 0.1,-0.36 0.23,-0.69 0.37,-0.99 0.14,-0.3 0.31,-0.56 0.49,-0.77 0.18,-0.21 0.4,-0.34 0.63,-0.38zm-0.85 4.73c-0.01,0.05 -0.03,0.14 -0.05,0.25 -0.02,0.12 -0.04,0.25 -0.05,0.4 0.1,-0.07 0.2,-0.17 0.32,-0.29 0.11,-0.12 0.23,-0.27 0.35,-0.45 0.12,-0.18 0.24,-0.39 0.36,-0.64 0.12,-0.25 0.23,-0.54 0.33,-0.87 0.11,-0.34 0.19,-0.68 0.24,-1.01 0.05,-0.33 0.08,-0.63 0.08,-0.88 0,-0.25 -0.03,-0.46 -0.08,-0.6 -0.05,-0.15 -0.13,-0.2 -0.24,-0.18 -0.1,0.03 -0.19,0.13 -0.28,0.3 -0.09,0.17 -0.17,0.38 -0.25,0.63 -0.08,0.25 -0.16,0.53 -0.22,0.84 -0.07,0.31 -0.13,0.62 -0.19,0.92 -0.06,0.31 -0.12,0.6 -0.17,0.87 -0.06,0.27 -0.11,0.5 -0.15,0.69zm2.15 0.12c-0.01,-0.17 -0.02,-0.32 -0.03,-0.46 -0.01,-0.14 -0.03,-0.26 -0.04,-0.37 -0.01,-0.04 0.05,-0.06 0.17,-0.08 0.12,-0.02 0.25,-0.02 0.38,-0.01 0.14,0.01 0.26,0.04 0.38,0.09 0.11,0.05 0.16,0.13 0.15,0.24 0.03,0.17 0.04,0.39 0.02,0.67 -0.02,0.28 -0.04,0.57 -0.07,0.88 -0.03,0.31 -0.05,0.61 -0.07,0.92 -0.02,0.3 -0.01,0.58 0.03,0.82 0.04,0.24 0.11,0.43 0.23,0.58 0.11,0.14 0.29,0.2 0.52,0.17 0.16,-0.02 0.29,-0.1 0.41,-0.23 0.11,-0.14 0.21,-0.3 0.29,-0.48 0.08,-0.18 0.14,-0.37 0.19,-0.56 0.05,-0.19 0.09,-0.35 0.12,-0.47 0.01,-0.32 0.01,-0.62 0.01,-0.92 0,-0.3 0,-0.57 0,-0.81 0,-0.24 0,-0.46 0.01,-0.64 0,-0.18 0.01,-0.33 0.02,-0.43 0,-0.04 0.05,-0.05 0.16,-0.04 0.1,0.01 0.21,0.02 0.33,0.05 0.12,0.03 0.23,0.07 0.32,0.12 0.1,0.05 0.14,0.1 0.13,0.14 0,0.02 0,0.15 0.01,0.38 0.01,0.23 0.01,0.53 0.02,0.9 0,0.37 0,0.78 -0.01,1.24 -0.01,0.46 -0.02,0.93 -0.04,1.41 -0.02,0.48 -0.06,0.95 -0.11,1.4 -0.05,0.45 -0.11,0.86 -0.19,1.22 -0.07,0.3 -0.17,0.54 -0.32,0.73 -0.14,0.18 -0.31,0.33 -0.49,0.43 -0.18,0.1 -0.37,0.17 -0.57,0.2 -0.2,0.03 -0.38,0.05 -0.55,0.05 -0.29,0.01 -0.53,-0.04 -0.72,-0.13 -0.19,-0.09 -0.35,-0.21 -0.47,-0.36 -0.12,-0.14 -0.2,-0.3 -0.25,-0.48 -0.05,-0.17 -0.09,-0.34 -0.11,-0.5 -0.02,-0.16 -0.02,-0.29 -0.01,-0.41 0.01,-0.11 0.02,-0.19 0.03,-0.22 0.01,-0.05 0.08,-0.09 0.19,-0.13 0.11,-0.04 0.23,-0.07 0.36,-0.1 0.13,-0.02 0.24,-0.04 0.34,-0.04 0.1,0 0.14,0.02 0.13,0.05 -0.04,0.25 -0.08,0.5 -0.11,0.74 -0.03,0.24 -0.02,0.46 0.02,0.65 0.04,0.19 0.12,0.34 0.25,0.46 0.13,0.11 0.32,0.17 0.59,0.15 0.18,-0.01 0.33,-0.12 0.44,-0.36 0.12,-0.23 0.22,-0.53 0.29,-0.9 0.08,-0.37 0.14,-0.79 0.18,-1.27 0.04,-0.47 0.07,-0.96 0.09,-1.45 -0.07,0.14 -0.15,0.28 -0.25,0.42 -0.1,0.14 -0.22,0.26 -0.35,0.36 -0.13,0.11 -0.28,0.19 -0.45,0.25 -0.17,0.06 -0.36,0.1 -0.57,0.1 -0.29,-0.01 -0.51,-0.08 -0.68,-0.22 -0.16,-0.14 -0.28,-0.33 -0.36,-0.56 -0.08,-0.23 -0.12,-0.49 -0.13,-0.78 -0.01,-0.29 -0.01,-0.58 0.02,-0.87 0.02,-0.29 0.05,-0.58 0.08,-0.85 0.03,-0.27 0.05,-0.51 0.06,-0.71zm-18.41 6.32c0.63,0.01 1.16,0.12 1.59,0.34 0.43,0.21 0.78,0.48 1.05,0.8 0.27,0.32 0.46,0.66 0.58,1.03 0.12,0.37 0.19,0.72 0.19,1.06 0.01,0.43 -0.05,0.82 -0.17,1.17 -0.12,0.35 -0.29,0.66 -0.5,0.94 -0.21,0.27 -0.45,0.51 -0.72,0.7 -0.27,0.19 -0.54,0.35 -0.82,0.47 -0.28,0.12 -0.55,0.2 -0.82,0.25 -0.26,0.05 -0.49,0.06 -0.68,0.04 -0.02,0 -0.08,-0.04 -0.17,-0.13 -0.09,-0.08 -0.18,-0.18 -0.27,-0.28 -0.09,-0.1 -0.16,-0.19 -0.2,-0.27 -0.04,-0.08 -0.03,-0.12 0.06,-0.11 0.49,0.02 0.96,-0.06 1.38,-0.22 0.43,-0.16 0.79,-0.38 1.1,-0.66 0.31,-0.27 0.55,-0.58 0.73,-0.92 0.17,-0.34 0.26,-0.68 0.25,-1.02 -0.01,-0.42 -0.07,-0.8 -0.19,-1.15 -0.12,-0.34 -0.29,-0.63 -0.52,-0.87 -0.23,-0.24 -0.5,-0.42 -0.83,-0.55 -0.33,-0.13 -0.7,-0.19 -1.12,-0.19 -0.52,0 -1.01,0.08 -1.45,0.25 -0.44,0.16 -0.84,0.39 -1.19,0.68 -0.35,0.29 -0.66,0.62 -0.92,1.01 -0.26,0.38 -0.48,0.8 -0.65,1.24 -0.17,0.44 -0.3,0.9 -0.39,1.37 -0.09,0.47 -0.12,0.94 -0.12,1.4 0.01,0.55 0.08,1.09 0.23,1.61 0.14,0.52 0.36,0.99 0.65,1.4 0.29,0.41 0.65,0.74 1.07,1 0.43,0.25 0.92,0.39 1.49,0.4 0.41,0.01 0.82,-0.02 1.21,-0.1 0.4,-0.08 0.77,-0.21 1.13,-0.4 0.35,-0.19 0.68,-0.44 0.98,-0.75 0.3,-0.31 0.56,-0.69 0.78,-1.15 0.01,-0.02 0.04,-0.02 0.1,0.02 0.06,0.04 0.12,0.09 0.18,0.15 0.06,0.06 0.12,0.12 0.17,0.17 0.05,0.06 0.07,0.09 0.06,0.1 -0.02,0.04 -0.08,0.12 -0.17,0.24 -0.09,0.13 -0.22,0.28 -0.39,0.45 -0.17,0.17 -0.38,0.35 -0.63,0.55 -0.25,0.19 -0.54,0.37 -0.86,0.53 -0.33,0.16 -0.7,0.29 -1.12,0.4 -0.41,0.11 -0.87,0.16 -1.36,0.16 -0.64,0.01 -1.22,-0.12 -1.76,-0.38 -0.54,-0.26 -1,-0.61 -1.4,-1.05 -0.4,-0.44 -0.72,-0.94 -0.96,-1.52 -0.24,-0.57 -0.38,-1.17 -0.43,-1.79 -0.04,-0.51 -0.01,-1.02 0.07,-1.54 0.08,-0.52 0.22,-1.01 0.42,-1.49 0.2,-0.48 0.46,-0.92 0.78,-1.34 0.32,-0.41 0.7,-0.77 1.14,-1.08 0.44,-0.3 0.95,-0.54 1.51,-0.71 0.56,-0.17 1.19,-0.24 1.89,-0.23z"/>
   <path class="fil1" d="M24.29 19.46c0.07,-0.01 0.15,-0.03 0.24,-0.06 0.1,-0.03 0.2,-0.07 0.3,-0.09 0.1,-0.03 0.21,-0.04 0.32,-0.03 0.11,0.01 0.2,0.05 0.28,0.12 0.04,0.04 0.07,0.08 0.11,0.14 0.04,0.06 0.07,0.12 0.09,0.18 0.02,0.06 0.03,0.12 0.03,0.18 -0,0.06 -0.03,0.1 -0.07,0.13 -0.04,0.03 -0.09,0.12 -0.14,0.27 -0.05,0.15 -0.07,0.32 -0.08,0.51 -0,0.19 0.03,0.39 0.1,0.6 0.07,0.21 0.2,0.38 0.39,0.52 0.04,0.03 0.04,0.07 0.01,0.12 -0.03,0.05 -0.08,0.1 -0.16,0.15 -0.07,0.05 -0.17,0.09 -0.28,0.12 -0.11,0.04 -0.23,0.05 -0.34,0.04 -0.12,-0.01 -0.23,-0.05 -0.35,-0.12 -0.11,-0.07 -0.22,-0.18 -0.31,-0.33 -0.09,-0.15 -0.13,-0.34 -0.13,-0.55 0,-0.22 0.02,-0.43 0.05,-0.63 0.03,-0.2 0.06,-0.38 0.1,-0.53 0.04,-0.15 0.04,-0.23 0.02,-0.24 -0.03,-0.02 -0.07,0.01 -0.13,0.1 -0.06,0.08 -0.13,0.2 -0.21,0.35 -0.08,0.15 -0.16,0.33 -0.25,0.53 -0.08,0.2 -0.16,0.41 -0.24,0.63 -0.07,0.22 -0.14,0.44 -0.2,0.66 -0.06,0.22 -0.1,0.43 -0.12,0.62 0,0.26 0.01,0.5 0.02,0.71 0.01,0.21 0.03,0.39 0.06,0.55 0.01,0.04 -0.05,0.06 -0.16,0.08 -0.11,0.02 -0.24,0.02 -0.38,0.01 -0.14,-0.01 -0.27,-0.04 -0.38,-0.09 -0.11,-0.05 -0.16,-0.13 -0.14,-0.24 0,-0.02 0.01,-0.17 0.02,-0.46 0.01,-0.29 0.03,-0.66 0.04,-1.11l-0.01 0c0.02,-0.51 0.04,-0.92 0.04,-1.23 0.01,-0.31 0.01,-0.56 0,-0.75 -0.01,-0.19 -0.02,-0.35 -0.03,-0.48 -0.01,-0.13 -0.04,-0.27 -0.07,-0.43 -0.01,-0.04 0.04,-0.06 0.16,-0.08 0.11,-0.02 0.23,-0.02 0.37,-0.01 0.14,0.01 0.26,0.04 0.38,0.09 0.11,0.05 0.17,0.13 0.16,0.24 -0.01,0.28 -0.03,0.55 -0.03,0.81 -0.01,0.26 -0.01,0.51 -0.02,0.76 0.07,-0.21 0.16,-0.42 0.25,-0.62 0.09,-0.2 0.18,-0.38 0.27,-0.55 0.08,-0.16 0.16,-0.29 0.24,-0.39 0.07,-0.1 0.13,-0.15 0.18,-0.16zm3.77 -0.22c0.3,-0.02 0.54,0.03 0.73,0.18 0.19,0.14 0.34,0.32 0.44,0.54 0.11,0.22 0.18,0.45 0.21,0.7 0.03,0.25 0.04,0.48 0.02,0.69 -0.05,0.44 -0.16,0.79 -0.32,1.04 -0.16,0.25 -0.34,0.44 -0.53,0.58 -0.2,0.13 -0.39,0.22 -0.59,0.25 -0.2,0.03 -0.36,0.05 -0.48,0.05 0.1,0.22 0.23,0.37 0.37,0.44 0.14,0.07 0.24,0.1 0.31,0.09 0.19,-0.01 0.37,-0.06 0.53,-0.15 0.16,-0.08 0.31,-0.19 0.44,-0.33 0.13,-0.13 0.24,-0.28 0.34,-0.44 0.1,-0.16 0.19,-0.31 0.26,-0.47 0.07,-0.15 0.13,-0.29 0.17,-0.43 0.04,-0.13 0.07,-0.24 0.09,-0.31 0.01,-0.03 0.07,-0.04 0.17,-0.04 0.1,0 0.15,0.03 0.17,0.09 0,0.02 -0.02,0.09 -0.06,0.22 -0.04,0.13 -0.1,0.28 -0.18,0.46 -0.08,0.18 -0.18,0.37 -0.31,0.57 -0.13,0.2 -0.28,0.39 -0.45,0.56 -0.17,0.17 -0.37,0.32 -0.6,0.44 -0.23,0.12 -0.48,0.19 -0.75,0.2 -0.24,0.01 -0.45,-0.02 -0.63,-0.1 -0.18,-0.08 -0.33,-0.18 -0.45,-0.31 -0.12,-0.13 -0.22,-0.27 -0.29,-0.42 -0.08,-0.16 -0.14,-0.31 -0.17,-0.45 -0.04,-0.14 -0.06,-0.27 -0.08,-0.38 -0.01,-0.11 -0.02,-0.18 -0.02,-0.22 0,-0.08 0,-0.21 0.01,-0.39 0.01,-0.18 0.03,-0.37 0.06,-0.59 0.03,-0.22 0.08,-0.45 0.16,-0.69 0.07,-0.24 0.17,-0.46 0.29,-0.66 0.13,-0.2 0.28,-0.37 0.46,-0.51 0.18,-0.14 0.41,-0.21 0.67,-0.23zm-0.69 3.02c-0.01,0.16 -0,0.3 0.01,0.43 0.01,0.13 0.04,0.24 0.07,0.34 0.09,0.01 0.2,-0 0.34,-0.03 0.14,-0.02 0.27,-0.09 0.41,-0.2 0.13,-0.11 0.25,-0.27 0.36,-0.5 0.11,-0.22 0.17,-0.53 0.2,-0.93 0.04,-0.64 -0,-1.11 -0.12,-1.4 -0.12,-0.3 -0.3,-0.43 -0.54,-0.39 -0.07,0.01 -0.14,0.07 -0.2,0.17 -0.06,0.1 -0.12,0.23 -0.17,0.38 -0.06,0.16 -0.11,0.33 -0.15,0.52 -0.04,0.19 -0.08,0.38 -0.11,0.58 -0.03,0.2 -0.05,0.38 -0.07,0.56 -0.02,0.18 -0.03,0.33 -0.03,0.46zm5.52 -2.95c0.04,-0.01 0.12,-0 0.22,0 0.1,0.01 0.21,0.03 0.31,0.06 0.1,0.03 0.19,0.08 0.27,0.14 0.07,0.06 0.1,0.15 0.09,0.25 -0.01,0.02 -0.02,0.13 -0.03,0.33 -0.01,0.2 -0.03,0.44 -0.05,0.72 -0.02,0.28 -0.04,0.59 -0.05,0.91 -0.01,0.32 -0.03,0.62 -0.03,0.89 -0.01,0.27 -0.01,0.5 0,0.69 0.01,0.18 0.03,0.28 0.06,0.28 0.08,0.01 0.16,-0.04 0.25,-0.13 0.08,-0.09 0.17,-0.21 0.25,-0.35 0.08,-0.14 0.16,-0.29 0.23,-0.46 0.07,-0.16 0.14,-0.32 0.19,-0.46 0.06,-0.14 0.1,-0.26 0.13,-0.35 0.03,-0.09 0.05,-0.14 0.06,-0.14 0.01,0 0.03,0 0.06,0 0.03,0 0.07,0.01 0.11,0.01 0.04,0 0.07,0.01 0.1,0.02 0.03,0.01 0.04,0.02 0.04,0.04 0,0.01 -0.02,0.08 -0.06,0.2 -0.04,0.12 -0.1,0.27 -0.17,0.45 -0.07,0.18 -0.16,0.37 -0.27,0.58 -0.11,0.21 -0.23,0.4 -0.36,0.57 -0.13,0.17 -0.28,0.32 -0.44,0.43 -0.16,0.11 -0.33,0.17 -0.51,0.16 -0.1,0 -0.18,-0.02 -0.24,-0.05 -0.07,-0.03 -0.13,-0.08 -0.18,-0.13 -0.05,-0.05 -0.09,-0.11 -0.12,-0.18 -0.03,-0.06 -0.06,-0.13 -0.08,-0.19 -0.1,0.14 -0.22,0.25 -0.34,0.33 -0.13,0.08 -0.25,0.13 -0.37,0.17 -0.12,0.04 -0.23,0.05 -0.33,0.06 -0.1,0 -0.17,0 -0.21,-0 -0.1,-0.01 -0.24,-0.03 -0.41,-0.08 -0.17,-0.05 -0.34,-0.15 -0.5,-0.31 -0.16,-0.16 -0.3,-0.38 -0.42,-0.68 -0.11,-0.3 -0.17,-0.7 -0.16,-1.21 0.01,-0.44 0.06,-0.81 0.15,-1.11 0.09,-0.3 0.21,-0.55 0.34,-0.74 0.13,-0.19 0.28,-0.34 0.44,-0.45 0.16,-0.11 0.32,-0.19 0.47,-0.23 0.15,-0.05 0.28,-0.08 0.4,-0.08 0.11,-0.01 0.2,-0.01 0.25,-0.01 0.11,0 0.21,0.02 0.29,0.06 0.08,0.04 0.16,0.08 0.23,0.14 0.07,0.06 0.13,0.12 0.18,0.18 0.05,0.06 0.09,0.13 0.12,0.18 0.01,-0.15 0.03,-0.26 0.04,-0.35 0.01,-0.08 0.03,-0.13 0.04,-0.14zm-1.13 4.42c0.14,0 0.26,-0.03 0.36,-0.08 0.1,-0.06 0.18,-0.12 0.24,-0.2 0.06,-0.08 0.11,-0.16 0.16,-0.25 0.04,-0.09 0.08,-0.18 0.11,-0.26 0,-0.15 0.01,-0.33 0.02,-0.54 0.01,-0.21 0.02,-0.43 0.03,-0.66 0.01,-0.23 0.03,-0.46 0.04,-0.7 0.02,-0.23 0.04,-0.46 0.05,-0.67 -0.01,0.01 -0.02,-0.01 -0.02,-0.05 0.01,-0.08 -0.01,-0.16 -0.05,-0.24 -0.04,-0.08 -0.09,-0.16 -0.16,-0.23 -0.07,-0.07 -0.14,-0.13 -0.22,-0.18 -0.08,-0.05 -0.16,-0.07 -0.23,-0.07 -0.14,0 -0.26,0.04 -0.37,0.13 -0.11,0.08 -0.2,0.2 -0.28,0.33 -0.08,0.14 -0.15,0.29 -0.21,0.46 -0.06,0.17 -0.1,0.33 -0.13,0.5 -0.03,0.16 -0.06,0.32 -0.08,0.46 -0.02,0.14 -0.03,0.25 -0.04,0.33 -0.01,0.12 -0.02,0.28 -0.01,0.5 0.01,0.22 0.04,0.43 0.09,0.65 0.05,0.22 0.13,0.4 0.24,0.56 0.11,0.16 0.27,0.23 0.47,0.22zm5.61 -6.4c0.12,0 0.18,0.03 0.2,0.08 0.01,0.06 0,0.12 -0.04,0.18 -0.04,0.07 -0.1,0.13 -0.17,0.19 -0.07,0.06 -0.13,0.09 -0.18,0.11 -0.02,0.01 -0.07,0.01 -0.16,0.01 -0.08,0 -0.19,-0 -0.32,-0 -0.13,-0 -0.29,-0.01 -0.46,-0.01 -0.17,-0 -0.36,-0.01 -0.55,-0.01 -0.01,0.39 -0.03,0.8 -0.05,1.23 -0.02,0.43 -0.03,0.86 -0.05,1.28 -0.01,0.42 -0.02,0.82 -0.03,1.21 -0.01,0.38 -0.01,0.72 -0.01,1.02 0,0.29 0.01,0.53 0.02,0.7 0.01,0.17 0.03,0.26 0.05,0.26 0.08,0.01 0.16,-0.04 0.25,-0.13 0.09,-0.09 0.17,-0.21 0.24,-0.35 0.08,-0.14 0.15,-0.29 0.23,-0.46 0.07,-0.16 0.14,-0.32 0.19,-0.46 0.06,-0.14 0.1,-0.26 0.14,-0.35 0.04,-0.09 0.06,-0.14 0.07,-0.14 0.01,0 0.03,0 0.06,0 0.03,0 0.07,0.01 0.11,0.01 0.04,0 0.07,0.01 0.1,0.02 0.03,0.01 0.04,0.02 0.04,0.04 0,0.01 -0.02,0.08 -0.06,0.2 -0.04,0.12 -0.1,0.27 -0.17,0.45 -0.07,0.18 -0.16,0.37 -0.27,0.58 -0.11,0.21 -0.23,0.4 -0.37,0.57 -0.14,0.17 -0.28,0.32 -0.45,0.43 -0.16,0.11 -0.33,0.17 -0.52,0.16 -0.13,0 -0.23,-0.03 -0.32,-0.09 -0.08,-0.06 -0.15,-0.13 -0.2,-0.21 -0.05,-0.08 -0.08,-0.16 -0.11,-0.25 -0.03,-0.09 -0.04,-0.16 -0.04,-0.23 0,-0.03 0,-0.13 0.01,-0.31 0,-0.18 0.01,-0.41 0.02,-0.69 0.01,-0.28 0.02,-0.6 0.03,-0.97 0.01,-0.36 0.02,-0.74 0.04,-1.14 0.01,-0.4 0.03,-0.8 0.04,-1.22 0.01,-0.41 0.02,-0.81 0.03,-1.19 -0.35,-0.01 -0.7,-0.02 -1.03,-0.02 -0.33,-0 -0.63,0 -0.89,0.01 -0.04,0 -0.05,-0.01 -0.04,-0.04 0.01,-0.03 0.02,-0.06 0.05,-0.09 0.03,-0.03 0.06,-0.06 0.1,-0.08 0.04,-0.02 0.08,-0.04 0.12,-0.04 0.16,-0.01 0.33,-0.01 0.51,-0.03 0.16,-0.01 0.34,-0.02 0.54,-0.04 0.21,-0.01 0.43,-0.03 0.65,-0.04 0,-0.25 0,-0.49 0.01,-0.71 0,-0.22 0,-0.42 0,-0.6 -0,-0.18 -0.01,-0.33 -0.02,-0.46 -0.01,-0.13 -0.01,-0.23 -0.02,-0.29 -0.01,-0.04 0.05,-0.06 0.17,-0.08 0.12,-0.02 0.25,-0.02 0.39,-0.01 0.14,0.01 0.27,0.04 0.38,0.09 0.12,0.05 0.17,0.13 0.15,0.24 -0.01,0.02 -0.02,0.2 -0.03,0.53 -0.01,0.33 -0.03,0.74 -0.06,1.24 0.22,-0.01 0.43,-0.02 0.63,-0.04 0.2,-0.01 0.37,-0.02 0.52,-0.03 0.15,-0.01 0.27,-0.02 0.37,-0.02 0.09,-0.01 0.14,-0.01 0.15,-0.01zm-0.55 1.98c0.04,-0.01 0.12,-0 0.22,0 0.1,0.01 0.21,0.03 0.31,0.06 0.1,0.03 0.19,0.08 0.26,0.14 0.07,0.06 0.11,0.15 0.1,0.25 -0.01,0.02 -0.02,0.13 -0.03,0.33 -0.01,0.2 -0.03,0.44 -0.05,0.72 -0.02,0.28 -0.04,0.59 -0.06,0.91 -0.02,0.32 -0.03,0.62 -0.04,0.89 -0.01,0.27 -0.01,0.5 0,0.69 0.01,0.18 0.03,0.28 0.07,0.28 0.08,0.01 0.16,-0.04 0.25,-0.13 0.08,-0.09 0.17,-0.21 0.25,-0.35 0.08,-0.14 0.16,-0.29 0.23,-0.46 0.07,-0.16 0.14,-0.32 0.19,-0.46 0.06,-0.14 0.11,-0.26 0.14,-0.35 0.03,-0.09 0.05,-0.14 0.06,-0.14 0.01,0 0.03,0 0.06,0 0.03,0 0.07,0.01 0.11,0.01 0.04,0 0.07,0.01 0.1,0.02 0.03,0.01 0.04,0.02 0.04,0.04 0,0.01 -0.02,0.08 -0.06,0.2 -0.04,0.12 -0.1,0.27 -0.17,0.45 -0.07,0.18 -0.16,0.37 -0.27,0.58 -0.11,0.21 -0.23,0.4 -0.36,0.57 -0.13,0.17 -0.28,0.32 -0.44,0.43 -0.16,0.11 -0.33,0.17 -0.51,0.16 -0.13,0 -0.23,-0.03 -0.32,-0.09 -0.08,-0.06 -0.15,-0.13 -0.2,-0.22 -0.05,-0.08 -0.08,-0.17 -0.11,-0.25 -0.03,-0.09 -0.04,-0.16 -0.05,-0.21 -0.01,-0.03 -0.01,-0.16 0,-0.37 0.01,-0.21 0.02,-0.47 0.03,-0.77 0.01,-0.3 0.03,-0.62 0.05,-0.96 0.02,-0.34 0.04,-0.66 0.07,-0.95 0.02,-0.29 0.04,-0.53 0.07,-0.72 0.02,-0.19 0.04,-0.29 0.07,-0.29zm-0.21 -1.4c0,-0.2 0.07,-0.37 0.21,-0.51 0.14,-0.14 0.3,-0.21 0.49,-0.21 0.19,0 0.36,0.07 0.49,0.21 0.13,0.14 0.2,0.31 0.2,0.51 0,0.2 -0.07,0.37 -0.2,0.51 -0.13,0.14 -0.3,0.21 -0.49,0.21 -0.19,0 -0.36,-0.07 -0.49,-0.21 -0.14,-0.14 -0.21,-0.31 -0.21,-0.51zm1.86 1.32c-0.01,-0.04 0.04,-0.06 0.16,-0.07 0.11,-0 0.24,0.01 0.38,0.05 0.14,0.03 0.28,0.09 0.4,0.16 0.13,0.07 0.21,0.15 0.24,0.25 0.01,0.04 0.01,0.13 0.01,0.27 0,0.14 0,0.31 0,0.52 0,0.2 0,0.43 0,0.68 0,0.25 0,0.5 0.01,0.75 0.01,0.25 0.02,0.5 0.05,0.74 0.03,0.24 0.06,0.45 0.1,0.64 0.04,0.18 0.1,0.33 0.17,0.44 0.07,0.11 0.15,0.16 0.25,0.16 0.13,0 0.24,-0.06 0.34,-0.18 0.1,-0.12 0.2,-0.28 0.28,-0.47 0.09,-0.19 0.16,-0.41 0.22,-0.65 0.06,-0.24 0.12,-0.47 0.16,-0.71 -0.18,-0.05 -0.33,-0.16 -0.45,-0.33 -0.12,-0.16 -0.21,-0.35 -0.28,-0.56 -0.06,-0.21 -0.09,-0.43 -0.09,-0.67 0,-0.23 0.03,-0.45 0.09,-0.65 0.06,-0.2 0.15,-0.36 0.28,-0.49 0.13,-0.13 0.28,-0.2 0.48,-0.2 0.14,-0.01 0.27,0.02 0.38,0.09 0.11,0.07 0.19,0.19 0.23,0.36 0.01,0.04 0.01,0.13 0.02,0.26 0.01,0.13 0.01,0.29 0,0.48 -0.01,0.19 -0.02,0.41 -0.03,0.65 -0.01,0.24 -0.04,0.49 -0.08,0.74 0.24,-0.01 0.45,-0.07 0.63,-0.19 0.19,-0.12 0.34,-0.26 0.48,-0.41 0.13,-0.15 0.24,-0.29 0.32,-0.42 0.08,-0.13 0.13,-0.21 0.16,-0.24 0.07,-0.06 0.13,-0.08 0.18,-0.04 0.05,0.04 0.08,0.12 0.08,0.23 0,0.05 -0.04,0.16 -0.13,0.31 -0.09,0.16 -0.21,0.31 -0.38,0.48 -0.16,0.16 -0.36,0.31 -0.6,0.44 -0.24,0.13 -0.5,0.2 -0.8,0.21 -0.06,0.29 -0.13,0.57 -0.22,0.84 -0.08,0.27 -0.19,0.51 -0.32,0.73 -0.13,0.21 -0.28,0.39 -0.45,0.52 -0.17,0.13 -0.37,0.21 -0.59,0.21 -0.34,0.02 -0.61,-0.06 -0.82,-0.25 -0.21,-0.18 -0.36,-0.42 -0.47,-0.72 -0.11,-0.3 -0.18,-0.64 -0.22,-1.01 -0.04,-0.37 -0.06,-0.75 -0.07,-1.12 -0.01,-0.37 -0.01,-0.72 -0.02,-1.04 -0.01,-0.33 -0.03,-0.59 -0.08,-0.79zm2.78 0.03c-0.07,0.01 -0.14,0.06 -0.19,0.15 -0.05,0.09 -0.09,0.21 -0.12,0.34 -0.03,0.14 -0.04,0.29 -0.04,0.45 0,0.16 0.01,0.32 0.04,0.48 0.03,0.16 0.07,0.3 0.13,0.42 0.06,0.13 0.14,0.22 0.23,0.29 0.04,-0.26 0.08,-0.49 0.09,-0.68 0.02,-0.19 0.03,-0.3 0.03,-0.33 0,-0.05 0.01,-0.14 0.02,-0.26 0.01,-0.13 0.02,-0.26 0.02,-0.39 0,-0.13 -0.01,-0.25 -0.04,-0.35 -0.03,-0.1 -0.09,-0.14 -0.18,-0.13zm3.13 -0.03c0.3,-0.02 0.54,0.03 0.73,0.18 0.19,0.14 0.34,0.32 0.44,0.54 0.11,0.22 0.18,0.45 0.21,0.7 0.03,0.25 0.04,0.48 0.02,0.69 -0.05,0.44 -0.16,0.79 -0.32,1.04 -0.16,0.25 -0.34,0.44 -0.53,0.58 -0.2,0.13 -0.39,0.22 -0.59,0.25 -0.2,0.03 -0.36,0.05 -0.48,0.05 0.1,0.22 0.23,0.37 0.37,0.44 0.14,0.07 0.24,0.1 0.31,0.09 0.19,-0.01 0.37,-0.06 0.53,-0.15 0.16,-0.08 0.31,-0.19 0.44,-0.33 0.13,-0.13 0.24,-0.28 0.34,-0.44 0.1,-0.16 0.19,-0.31 0.26,-0.47 0.07,-0.15 0.13,-0.29 0.17,-0.43 0.04,-0.13 0.07,-0.24 0.09,-0.31 0.01,-0.03 0.07,-0.04 0.17,-0.04 0.1,0 0.15,0.03 0.17,0.09 0,0.02 -0.02,0.09 -0.06,0.22 -0.04,0.13 -0.1,0.28 -0.18,0.46 -0.08,0.18 -0.18,0.37 -0.31,0.57 -0.13,0.2 -0.28,0.39 -0.45,0.56 -0.17,0.17 -0.37,0.32 -0.6,0.44 -0.23,0.12 -0.48,0.19 -0.75,0.2 -0.24,0.01 -0.45,-0.02 -0.63,-0.1 -0.18,-0.08 -0.33,-0.18 -0.45,-0.31 -0.12,-0.13 -0.22,-0.27 -0.29,-0.42 -0.08,-0.16 -0.14,-0.31 -0.17,-0.45 -0.04,-0.14 -0.06,-0.27 -0.08,-0.38 -0.01,-0.11 -0.02,-0.18 -0.02,-0.22 0,-0.08 0,-0.21 0.01,-0.39 0.01,-0.18 0.03,-0.37 0.06,-0.59 0.03,-0.22 0.08,-0.45 0.16,-0.69 0.07,-0.24 0.17,-0.46 0.29,-0.66 0.13,-0.2 0.28,-0.37 0.46,-0.51 0.18,-0.14 0.41,-0.21 0.67,-0.23zm-0.69 3.02c-0.01,0.16 -0,0.3 0.01,0.43 0.01,0.13 0.04,0.24 0.07,0.34 0.09,0.01 0.2,-0 0.34,-0.03 0.14,-0.02 0.27,-0.09 0.41,-0.2 0.13,-0.11 0.25,-0.27 0.36,-0.5 0.11,-0.22 0.17,-0.53 0.2,-0.93 0.04,-0.64 -0,-1.11 -0.12,-1.4 -0.12,-0.3 -0.3,-0.43 -0.54,-0.39 -0.07,0.01 -0.14,0.07 -0.2,0.17 -0.06,0.1 -0.12,0.23 -0.17,0.38 -0.06,0.16 -0.11,0.33 -0.15,0.52 -0.04,0.19 -0.08,0.38 -0.11,0.58 -0.03,0.2 -0.05,0.38 -0.07,0.56 -0.02,0.18 -0.03,0.33 -0.03,0.46z"/>
   <path class="fil2" d="M1.26 10.04c0.03,0.04 0.05,0.07 0.08,0.11 -0.84,-1.07 -1.34,-2.41 -1.34,-3.87 0,-3.47 2.81,-6.28 6.28,-6.28 3.47,0 6.28,2.81 6.28,6.28 0,1.47 -0.51,2.83 -1.36,3.9l-0.07 0.09 0.01 -0.01 -0.03 0.04c-0.16,0.21 -0.31,0.41 -0.44,0.58 -0.84,1.16 -1.2,2.14 -1.28,4.15 -0.01,0.34 -0.01,0.72 -0.01,1.15 0,0.02 -0,0.04 -0.01,0.06l0 0.01 -0 0.01c0.01,1.23 0.02,2.24 0.03,3.02 -2.47,-0.4 -4.53,-0.36 -6.18,0.13 -0,0.03 -0.01,0.07 -0.01,0.1l0 0.01 0 -0.01c-0,0.02 -0,0.03 -0,0.05l0 -0.12c0,-0.01 0,-0.02 0,-0.03l0 -0.02c-0,-0.23 -0,-0.5 0,-0.81l0 -1.3c0,-0.49 -0.01,-0.94 -0.02,-1.36 -0.02,-0.44 -0.05,-0.89 -0.09,-1.33l-0 -0.02 0 -0c-0.2,-1.82 -0.69,-3 -1.83,-4.52zm4.46 -2.45c0.01,-0.11 0.07,-0.29 0.32,-0.29 0.26,0.01 0.32,0.25 0.33,0.35 0.02,0.22 -0.08,0.51 -0.31,0.72 -0.25,-0.24 -0.36,-0.56 -0.34,-0.79zm1.76 1.01c0.07,-0.3 0.24,-0.83 0.5,-0.95 0.04,-0.02 0.07,-0.02 0.11,-0.02 0.03,0 0.06,0.01 0.09,0.02 0.04,0.01 0.15,0.06 0.09,0.24 -0.08,0.24 -0.41,0.54 -0.79,0.71zm-2.89 -0.12c-0.36,-0.14 -0.66,-0.36 -0.78,-0.57 -0.08,-0.15 -0.05,-0.27 0.08,-0.36 0.04,-0.03 0.07,-0.03 0.09,-0.03 0.01,0 0.03,0 0.04,0.01 0.12,0.04 0.31,0.25 0.57,0.96zm0.96 3.94c-0.24,-1.33 -0.53,-3.18 -0.7,-3.7 0.22,0.05 0.45,0.07 0.67,0.05 0.21,-0.02 0.39,-0.09 0.54,-0.19 0.17,0.13 0.39,0.24 0.64,0.29 0.18,0.03 0.37,0.02 0.55,-0.02l-0.57 3.22c-0.39,0.11 -0.77,0.22 -1.13,0.35zm1.32 -0.41l0.57 -3.23c0.48,-0.18 0.89,-0.55 1,-0.85 0.07,-0.2 0,-0.35 -0.19,-0.42 -0.12,-0.04 -0.24,-0.04 -0.35,0.01 -0.42,0.19 -0.59,1.03 -0.61,1.15 -0.19,0.06 -0.38,0.08 -0.56,0.05 -0.21,-0.04 -0.4,-0.13 -0.54,-0.24 0.25,-0.22 0.38,-0.54 0.35,-0.83 -0.03,-0.3 -0.22,-0.49 -0.5,-0.5 -0.28,-0.01 -0.46,0.15 -0.49,0.41 -0.03,0.26 0.1,0.62 0.38,0.9 -0.12,0.08 -0.27,0.13 -0.44,0.15 -0.23,0.02 -0.47,-0 -0.69,-0.07 -0.35,-1.04 -0.6,-1.12 -0.71,-1.16 -0.07,-0.03 -0.18,-0.04 -0.31,0.04 -0.19,0.13 -0.24,0.32 -0.13,0.53 0.14,0.27 0.54,0.55 1,0.7 0.17,0.53 0.49,2.44 0.73,3.82 -0.67,0.25 -1.26,0.56 -1.69,0.99 -0.17,-1.37 -0.57,-2.3 -1.45,-3.48 0.02,0.03 0.04,0.06 0.07,0.09 -0.67,-0.86 -1.08,-1.94 -1.08,-3.12 0,-2.79 2.26,-5.06 5.06,-5.06 2.79,0 5.06,2.26 5.06,5.06 0,1.19 -0.41,2.28 -1.09,3.14 -0.32,0.43 -0.58,0.8 -0.78,1.17 -0.52,0.19 -1.1,0.35 -1.69,0.51 -0.3,0.08 -0.61,0.16 -0.91,0.24zm1.9 6.43c-1.46,-0.21 -3.26,-0.28 -4.98,0.27 0.81,-1.45 4.26,-1.58 4.91,-2.23 0.02,0.95 0.06,1.57 0.07,1.96zm-0.17 -3.48c0.02,-1.48 0.16,-1.82 0.63,-2.94 -1.08,0.67 -3.38,0.47 -5.4,2.18 0.15,1.07 0.04,2.48 0.01,3.6 0.49,-0.97 2.9,-1.34 4.09,-1.7 0.84,-0.25 0.66,-0.36 0.67,-1.14z"/>
   <path class="fil3" d="M3.3 19.85c2.77,-0.5 4.05,-0.47 6.19,-0.08l-0.03 1.84c-0,0.3 -0.44,0.55 -0.99,0.55l-4.19 0c-0.54,0 -0.99,-0.25 -0.99,-0.55 0,-0.59 0,-1.17 0,-1.76z"/>
   <path class="fil4" d="M4.56 22.64l3.67 0 0 0.29c0,0.38 -0.31,0.7 -0.7,0.7l-2.27 0c-0.38,0 -0.7,-0.31 -0.7,-0.7l0 -0.29z"/>
   <path class="fil5" d="M5.46 24.18l1.89 0 -0.94 0.94 -0.94 -0.94zm0.94 0m0.47 0.47m-0.94 -0"/>
   <path class="fil6" d="M2.03 22.75l3.05 2.19 -3.29 -1.64 0.24 -0.54zm1.52 1.09m-0.12 0.27m-1.52 -1.09"/>
   <path class="fil7" d="M2.3 25.11l3.16 0.57 -3.16 0 0 -0.57zm1.58 0.29m0 0.29m-1.58 -0.29"/>
   <path class="fil8" d="M1.19 24.15l1.98 0.49 -2.01 -0.27 0.03 -0.22zm0.99 0.25m-0.02 0.11m-0.99 -0.25"/>
   <path class="fil9" d="M10.52 22.75l-3.05 2.19 3.29 -1.64 -0.25 -0.54zm-1.52 1.09m0.12 0.27m1.52 -1.09"/>
   <path class="fil10" d="M10.26 25.11l-3.16 0.57 3.16 0 0 -0.57zm-1.58 0.29m0 0.29m1.58 -0.29"/>
   <path class="fil11" d="M11.36 24.15l-1.98 0.49 2.01 -0.27 -0.03 -0.22zm-0.99 0.25m0.01 0.11m0.99 -0.25"/>
  </g>
 </g>
</svg>
